#!OML:ASF X:\für Bonn\!DataBase\2005_08_10_Bjorn_Final\c3d\bjorn.ASF
:FULLY-SPECIFIED
:DEGREES
78
root -21.9351 18.5142 -23.4008 -166.854 -190.418 -180.254
lowerback -4.37295 -2.76882 -2.12889
upperback 6.93648 -3.36399 -1.725
thorax 9.8284 -1.70744 -1.07607
lowerneck -4.745 2.31283 1.14913
upperneck 8.37738 2.90678 1.09319
head 3.54337 1.51791 0.288936
rclavicle 5.1684e-015 2.22639e-014
rhumerus -55.0598 -0.286252 -93.4652
rradius 34.5081
rwrist 0.0892491
rhand -13.3785 16.1132
rfingers 7.12502
rthumb 12.7284 -13.4789
lclavicle 5.1684e-015 2.22639e-014
lhumerus -12.7849 -28.1267 84.5811
lradius 90.5164
lwrist -21.4349
lhand -40.6589 -19.9426
lfingers 7.12502
lthumb -13.6029 9.59294
rfemur -48.2391 -7.91647 15.9593
rtibia 54.1714
rfoot -25.7471 3.46579
rtoes -18.0439
lfemur 5.48917 6.60263 -18.7845
ltibia 17.2986
lfoot -18.7262 -12.4132
ltoes -10.4334
79
root -21.9183 18.5483 -23.2088 -166.517 -190.912 -180.576
lowerback -4.68094 -2.95206 -1.67737
upperback 6.67125 -3.68214 -1.3474
thorax 9.71268 -1.84544 -0.973466
lowerneck -4.93082 2.41347 1.00006
upperneck 8.46252 3.06299 0.949846
head 3.60911 1.58503 0.279033
rclavicle -5.96354e-015 -1.35174e-014
rhumerus -55.8223 0.0542815 -93.2368
rradius 35.2576
rwrist -0.437646
rhand -13.9307 16.7497
rfingers 7.12502
rthumb 12.196 -12.8748
lclavicle -5.96354e-015 -1.35174e-014
lhumerus -13.1449 -28.8046 84.6111
lradius 91.0808
lwrist -21.7572
lhand -40.8262 -19.7793
lfingers 7.12502
lthumb -13.7641 9.74544
rfemur -48.4196 -7.73447 16.1361
rtibia 53.6958
rfoot -25.3512 3.72335
rtoes -17.1728
lfemur 6.03581 6.64325 -18.102
ltibia 16.3615
lfoot -17.2187 -13.0109
ltoes -10.9434
80
root -21.9008 18.5821 -23.0132 -166.226 -191.387 -180.805
lowerback -4.95627 -3.1221 -1.29987
upperback 6.42869 -3.97297 -1.01533
thorax 9.60537 -1.97399 -0.875468
lowerneck -4.935 2.50307 0.928127
upperneck 8.34151 3.20729 0.751033
head 3.56985 1.64536 0.231838
rclavicle -2.70347e-014 -1.98785e-014
rhumerus -56.524 0.324248 -93.0231
rradius 35.9619
rwrist -0.907051
rhand -14.4503 17.3297
rfingers 7.12502
rthumb 11.6949 -12.3239
lclavicle -2.70347e-014 -1.98785e-014
lhumerus -13.5535 -29.4899 84.639
lradius 91.5906
lwrist -22.1103
lhand -40.9021 -19.54
lfingers 7.12502
lthumb -13.8373 9.97971
rfemur -48.4704 -7.55474 16.2143
rtibia 53.187
rfoot -24.9534 3.88079
rtoes -17.1487
lfemur 6.63372 6.74987 -17.4994
ltibia 15.4331
lfoot -15.6539 -13.6
ltoes -11.7496
81
root -21.8851 18.6156 -22.8127 -165.958 -191.872 -180.938
lowerback -5.24341 -3.30438 -1.05978
upperback 6.22466 -4.26817 -0.67147
thorax 9.56014 -2.11454 -0.69382
lowerneck -4.90966 2.59649 0.75231
upperneck 8.13457 3.36367 0.573055
head 3.49271 1.70941 0.208635
rclavicle -7.31528e-014 2.06736e-014
rhumerus -57.1188 0.564377 -92.7154
rradius 36.6213
rwrist -1.34295
rhand -14.9005 17.8537
rfingers 7.12502
rthumb 11.2607 -11.8241
lclavicle -7.31528e-014 2.06736e-014
lhumerus -13.9774 -30.115 84.7634
lradius 91.9789
lwrist -22.4834
lhand -41.0146 -19.3546
lfingers 7.12502
lthumb -13.9457 10.1577
rfemur -48.4019 -7.44625 16.2271
rtibia 52.6582
rfoot -24.5675 4.04349
rtoes -17.5846
lfemur 7.28072 6.70424 -17.0054
ltibia 14.4843
lfoot -14.0071 -14.0531
ltoes -12.3874
82
root -21.8679 18.6503 -22.6059 -165.673 -192.404 -181.034
lowerback -5.597 -3.48014 -0.827303
upperback 6.03425 -4.5532 -0.338572
thorax 9.57081 -2.2495 -0.52514
lowerneck -4.92379 2.67856 0.62299
upperneck 7.96955 3.50005 0.391096
head 3.43914 1.76541 0.176292
rclavicle -1.39149e-014 -3.97569e-015
rhumerus -57.6453 0.769382 -92.4192
rradius 37.3339
rwrist -1.78124
rhand -15.3484 18.2216
rfingers 7.12502
rthumb 10.8287 -11.4792
lclavicle -1.39149e-014 -3.97569e-015
lhumerus -14.4587 -30.8293 84.9142
lradius 92.2011
lwrist -22.9598
lhand -41.2723 -19.2399
lfingers 7.12502
lthumb -14.194 10.2552
rfemur -48.2679 -7.40373 16.238
rtibia 52.1171
rfoot -24.1651 4.10467
rtoes -18.2072
lfemur 7.93841 6.59948 -16.5398
ltibia 13.4894
lfoot -12.2304 -14.4173
ltoes -13.3367
83
root -21.8496 18.6831 -22.395 -165.438 -192.928 -181.149
lowerback -5.9152 -3.63455 -0.538847
upperback 5.83542 -4.81512 -0.027246
thorax 9.54549 -2.36884 -0.405856
lowerneck -4.96883 2.76726 0.580969
upperneck 7.91861 3.64224 0.151704
head 3.4346 1.82484 0.112265
rclavicle 2.42517e-014 4.77083e-015
rhumerus -58.1759 0.867742 -92.0912
rradius 38.1088
rwrist -2.13387
rhand -15.7526 18.3981
rfingers 7.12502
rthumb 10.4389 -11.3227
lclavicle 2.42517e-014 4.77083e-015
lhumerus -15.0883 -31.6173 85.1218
lradius 92.2493
lwrist -23.4211
lhand -41.7373 -19.2371
lfingers 7.12502
lthumb -14.6421 10.226
rfemur -48.0225 -7.36406 16.2933
rtibia 51.5726
rfoot -23.7588 4.12146
rtoes -18.8282
lfemur 8.6587 6.30546 -16.0917
ltibia 12.4751
lfoot -10.2903 -14.5877
ltoes -14.0418
84
root -21.8308 18.7148 -22.182 -165.235 -193.382 -181.267
lowerback -6.19763 -3.75357 -0.264785
upperback 5.64342 -5.02863 0.276111
thorax 9.50731 -2.46566 -0.279243
lowerneck -5.08754 2.84451 0.648094
upperneck 7.95692 3.7689 -0.194299
head 3.48074 1.8753 -0.00381833
rclavicle -6.75868e-015 -7.55382e-015
rhumerus -58.631 0.865855 -91.7143
rradius 38.958
rwrist -2.57021
rhand -16.085 18.4173
rfingers 7.12502
rthumb 10.1181 -11.3194
lclavicle -6.75868e-015 -7.55382e-015
lhumerus -15.8226 -32.5028 85.4162
lradius 92.1927
lwrist -23.5638
lhand -42.1905 -19.481
lfingers 7.12502
lthumb -15.0787 9.94978
rfemur -47.7101 -7.28159 16.3768
rtibia 51.031
rfoot -23.3066 4.14097
rtoes -19.1388
lfemur 9.39896 6.03289 -15.6618
ltibia 11.5017
lfoot -8.29316 -14.6148
ltoes -15.0256
85
root -21.8118 18.7433 -21.9711 -165.109 -193.798 -181.405
lowerback -6.38277 -3.85452 0.0185396
upperback 5.4774 -5.21996 0.58578
thorax 9.4403 -2.55207 -0.142793
lowerneck -5.26064 2.9226 0.691066
upperneck 8.00592 3.89861 -0.535801
head 3.54149 1.92625 -0.11317
rclavicle 5.64548e-014 7.95139e-016
rhumerus -58.965 0.814681 -91.2759
rradius 39.8626
rwrist -2.93921
rhand -16.3039 18.2373
rfingers 7.12502
rthumb 9.90699 -11.5096
lclavicle 5.64548e-014 7.95139e-016
lhumerus -16.5936 -33.4468 85.7647
lradius 92.0277
lwrist -23.513
lhand -42.7282 -19.8373
lfingers 7.12502
lthumb -15.5966 9.55389
rfemur -47.3019 -7.19538 16.5045
rtibia 50.4965
rfoot -22.8063 4.159
rtoes -19.1136
lfemur 10.1332 5.73071 -15.2235
ltibia 10.6693
lfoot -6.26756 -14.5367
ltoes -15.8599
86
root -21.7932 18.7673 -21.7612 -165.035 -194.142 -181.469
lowerback -6.48998 -3.92334 0.237432
upperback 5.3452 -5.35622 0.837553
thorax 9.36467 -2.61419 -0.0200565
lowerneck -5.49029 2.99878 0.84569
upperneck 8.06796 4.01669 -0.88134
head 3.62169 1.97406 -0.242932
rclavicle -1.33186e-014 1.78906e-014
rhumerus -59.1499 0.622739 -90.8003
rradius 40.7913
rwrist -3.28878
rhand -16.4776 18.1681
rfingers 7.12502
rthumb 9.73938 -11.5867
lclavicle -1.33186e-014 1.78906e-014
lhumerus -17.4499 -34.4163 86.163
lradius 91.8411
lwrist -23.2302
lhand -43.1228 -20.1906
lfingers 7.12502
lthumb -15.9766 9.17052
rfemur -46.7996 -7.05935 16.5525
rtibia 49.986
rfoot -22.368 4.05997
rtoes -19.2835
lfemur 10.8028 5.07564 -14.9883
ltibia 10.1043
lfoot -4.49339 -14.0091
ltoes -16.8688
87
root -21.7734 18.7875 -21.5515 -164.986 -194.45 -181.46
lowerback -6.57171 -3.97543 0.378617
upperback 5.23457 -5.46006 1.07088
thorax 9.30348 -2.66493 0.131446
lowerneck -5.56483 3.06173 0.996256
upperneck 7.94828 4.11409 -1.20163
head 3.60799 2.01362 -0.369069
rclavicle -3.1408e-014 3.10104e-014
rhumerus -59.1215 0.408431 -90.3067
rradius 41.503
rwrist -3.65622
rhand -16.8211 18.4753
rfingers 7.12502
rthumb 9.40797 -11.2947
lclavicle -3.1408e-014 3.10104e-014
lhumerus -18.5782 -35.2704 86.7837
lradius 91.7939
lwrist -22.9319
lhand -43.5995 -20.2661
lfingers 7.12502
lthumb -16.4356 9.05764
rfemur -46.202 -6.91778 16.5264
rtibia 49.4911
rfoot -21.9845 3.99751
rtoes -19.1853
lfemur 11.2868 4.48017 -14.8369
ltibia 9.97437
lfoot -2.90334 -13.5121
ltoes -18.0569
88
root -21.754 18.8054 -21.3418 -164.943 -194.716 -181.468
lowerback -6.61956 -3.99311 0.572198
upperback 5.10189 -5.51812 1.25875
thorax 9.18801 -2.68905 0.216239
lowerneck -5.49564 3.12032 1.20681
upperneck 7.72288 4.19532 -1.47532
head 3.53025 2.05017 -0.494234
rclavicle -1.39149e-015 1.59028e-015
rhumerus -59.0096 -0.0201018 -89.7633
rradius 42.0103
rwrist -3.77485
rhand -17.2424 19.1817
rfingers 7.12502
rthumb 9.00148 -10.6063
lclavicle -1.39149e-015 1.59028e-015
lhumerus -19.7864 -36.1199 87.4778
lradius 91.6898
lwrist -22.6133
lhand -43.8732 -20.2897
lfingers 7.12502
lthumb -16.6991 9.01202
rfemur -45.5706 -6.75468 16.547
rtibia 49.0244
rfoot -21.6816 3.88828
rtoes -19.1736
lfemur 11.4743 3.93101 -14.6866
ltibia 10.3955
lfoot -1.42747 -12.9495
ltoes -19.4104
